<svg xmlns="http://www.w3.org/2000/svg" viewBox="0 0 500 500"><g id="freepik--Floor--inject-55"><path id="freepik--floor--inject-55" d="M102.2,451.87c81.65,45,214,45,295.66,0s81.64-117.86,0-162.82-214-45-295.66,0S20.56,406.91,102.2,451.87Z" style="fill:#f5f5f5"></path></g><g id="freepik--Shadows--inject-55"><path id="freepik--Shadow--inject-55" d="M85.54,420.16l6.12,3.53a6.67,6.67,0,0,0,6.06,0L278.51,319.31c1.68-1,1.68-2.53,0-3.5l-6.12-3.54a6.74,6.74,0,0,0-6.06,0L85.54,416.66C83.86,417.62,83.86,419.19,85.54,420.16Z" style="fill:#e0e0e0"></path><path id="freepik--shadow--inject-55" d="M351.07,390.49c17.69,9.24,46.37,9.25,64.06,0s17.68-24.22,0-33.46-46.37-9.24-64.06,0S333.38,381.25,351.07,390.49Z" style="fill:#e0e0e0"></path><path id="freepik--shadow--inject-55" d="M329.35,371.84c5.32,2.78,13.95,2.78,19.27,0s5.32-7.28,0-10.06-13.95-2.78-19.27,0S324,369.06,329.35,371.84Z" style="fill:#e0e0e0"></path></g><g id="freepik--Plants--inject-55"><g id="freepik--plants--inject-55"><path d="M93,373.13c.24-8.88-2.23-23.77-11-38.63-9.36-15.91-21.72-26.56-32.1-23.32-9.68,3-7.55,16.14,7,30.44,10.21,10,20.54,22.76,25.26,37.3l8.18,18.74Z" style="fill:#90CAF9"></path><path d="M93,373.13c.24-8.88-2.23-23.77-11-38.63-9.36-15.91-21.72-26.56-32.1-23.32-9.68,3-7.55,16.14,7,30.44,10.21,10,20.54,22.76,25.26,37.3l8.18,18.74Z" style="fill:#37474f"></path><path d="M91.41,379.75a.64.64,0,0,1-.54-.48c-6.23-25.36-22-52-36.73-62.07a.63.63,0,0,1-.17-.87.64.64,0,0,1,.88-.17C69.79,326.34,85.8,353.34,92.09,379a.63.63,0,0,1-.46.76A.82.82,0,0,1,91.41,379.75Z" style="fill:#fff"></path><path d="M93.12,401.89a37.46,37.46,0,0,1-17.28,8.65c-11.06,2.43-16.31-2.62-16.31-2.62s3.77-10.74,9.94-14.05c0,0-10.62,2.83-18.91,9.1,0,0-6.82.51-10.15-9.73,0,0,3.66-6.51,17-10.7,0,0-8.37-1.59-20.08,2.15-.87.41-5.47-12.82-7-19s1-6.23,5.74-7.81,21.2-3.38,24.39-.9,5.27,11.5,5.27,11.5,2.6-5.33,1.63-9.88a17.32,17.32,0,0,1,10.31-.37c5.55,1.57,5.37,4.24,5.6,8.2a42,42,0,0,1-.92,11.88s3.56-3.47,3-15.46c0,0,7.72,5.85,11,11.08S99.73,393.39,93.12,401.89Z" style="fill:#455a64"></path><path d="M93.16,402.51a.61.61,0,0,1-.59-.32C82.44,384,47.63,364.24,35.48,362.62a.63.63,0,0,1-.54-.71.64.64,0,0,1,.71-.54C48,363,83.38,383.1,93.67,401.58a.62.62,0,0,1-.25.85A.5.5,0,0,1,93.16,402.51Z" style="fill:#fff"></path></g><g id="freepik--plants--inject-55"><path d="M401,345.81s1.39-12.19,7.45-21.64,14.39-15.36,22.16-16,14,6.53,5.73,11.44-23.09,9.92-29.88,28.28Z" style="fill:#90CAF9"></path><path d="M401,345.81s1.39-12.19,7.45-21.64,14.39-15.36,22.16-16,14,6.53,5.73,11.44-23.09,9.92-29.88,28.28Z" style="opacity:0.1"></path><path d="M403.29,342.64l-.08,0a.42.42,0,0,1-.23-.54c8.2-20.19,23.81-28.63,30.92-30.26a.41.41,0,0,1,.5.31.42.42,0,0,1-.32.5c-7,1.6-22.26,9.88-30.33,29.76A.41.41,0,0,1,403.29,342.64Z" style="fill:#fff"></path><path d="M444.8,342.88c-.71,1.59-2.44,2.41-4.05,3.06s-3.36,1.35-4.23,2.85c-1.75,3,1.13,7.29-.76,10.23a5.42,5.42,0,0,1-3.7,2.15,33.94,33.94,0,0,1-3.64.33,13.92,13.92,0,0,1-1.73-.14,7.84,7.84,0,0,0-5,.54c-2.41,1.35-3.15,4.39-4.61,6.73a11.44,11.44,0,0,1-8.11,5.09c-1.08.14-3.1.34-4.2-.28l-.23-.14,0,0a6.49,6.49,0,0,1-.42-.51.16.16,0,0,1,0-.07c-.43-1.57.27-3.2.3-4.83a2.81,2.81,0,0,0,0-.29c-.06-1.89-.12-3.76-.16-5.64-.09-3.46-.13-6.93-.1-10.4,0-2.25-.25-4.71.7-6.83,1.06-2.33,3.68-2.38,4.67-4.67.39-.91.61-1.89,1-2.81a8,8,0,0,1,6.86-4.79c4.58-.24,8.69,3.47,13.26,3.13a32.23,32.23,0,0,0,3.5-.67c3.71-.69,8,.37,10.08,3.5A4.83,4.83,0,0,1,444.8,342.88Z" style="fill:#90CAF9"></path><path d="M403.67,365.49h0a.39.39,0,0,1-.27-.48c6.32-23.73,31.32-27.16,37.17-26.74a.41.41,0,0,1,.36.42.39.39,0,0,1-.42.36c-5.72-.41-30.17,2.95-36.36,26.16A.38.38,0,0,1,403.67,365.49Z" style="fill:#fff"></path><path d="M431.45,353.47a.36.36,0,0,1-.21-.11,20.78,20.78,0,0,0-17-4.79.39.39,0,0,1-.44-.33.39.39,0,0,1,.33-.44,21.56,21.56,0,0,1,17.68,5,.38.38,0,0,1,0,.55A.37.37,0,0,1,431.45,353.47Z" style="fill:#fff"></path></g></g><g id="freepik--Checklist--inject-55"><path d="M95.79,420.37,92,418.18a4.78,4.78,0,0,1-2.17-3.75V133.32A4.78,4.78,0,0,1,92,129.57L266.39,28.88a4.79,4.79,0,0,1,4.33,0l3.8,2.19a4.8,4.8,0,0,1,2.16,3.75V315.93a4.8,4.8,0,0,1-2.16,3.75L100.12,420.37A4.79,4.79,0,0,1,95.79,420.37Z" style="fill:#90CAF9"></path><path d="M276.66,34.47c-.15-1.12-1.06-1.53-2.14-.9L100.12,134.26a4.4,4.4,0,0,0-1.53,1.61l-8.13-4.69A4.48,4.48,0,0,1,92,129.57L266.39,28.88a4.79,4.79,0,0,1,4.33,0l3.8,2.19A4.85,4.85,0,0,1,276.66,34.47Z" style="fill:#fff;opacity:0.4"></path><path d="M99.74,420.55a.35.35,0,0,1-.13.05l-.22.08-.09,0-.4.1h-.05a4.88,4.88,0,0,1-2.58-.21,3.51,3.51,0,0,1-.48-.22L92,418.19a4.81,4.81,0,0,1-2.16-3.75V133.32a4.47,4.47,0,0,1,.63-2.14l8.13,4.69A4.37,4.37,0,0,0,98,138V419.13a1.8,1.8,0,0,0,.33,1.14,1.13,1.13,0,0,0,1.16.37Z" style="opacity:0.15"></path><path d="M222.21,80.64l-.32-.19-3.6-2.07a13.51,13.51,0,0,0-4.2-1.49c-.62-.14-1.18-.3-1.67-.46a13,13,0,0,1-1.59-.65l.27-.33h0L207,73.09h0a4.13,4.13,0,0,0-1.07-.43c-1.53-.37-3.82.52-6.11.26a5.74,5.74,0,0,1-4.15-2.47c-1.39-1.87-2.23-5.15-3.46-7.86L193.31,61l-.34-.19-3.73-2.16a4.06,4.06,0,0,0-2.08-.56,8,8,0,0,0-3.91,1.27c-8.93,5.16-9.23,17.41-12.45,25.46s-7.77,10.58-10.25,14-2.65,6-8.14,13.6-5.71,9.42-5.71,10.85v11.28l4.06,2.34,73.09-42.21Zm-67,43.47c-.95.54-1.73-.19-1.73-1.66a4.59,4.59,0,0,1,1.73-3.66c.95-.55,1.72.2,1.72,1.67A4.56,4.56,0,0,1,155.19,124.11ZM187.3,92.46c-2.4,1.39-4.5.6-5.63-1.72-2.83.55-4.94-2.19-4.94-6.89,0-5.54,2.92-11.71,6.52-13.79a3.67,3.67,0,0,1,5.62,1.72c2.84-.56,4.94,2.17,4.94,6.89C193.81,84.21,190.9,90.38,187.3,92.46Zm24.27-.91c-.95.55-1.72-.19-1.72-1.65a4.55,4.55,0,0,1,1.72-3.65c1-.55,1.73.19,1.73,1.66A4.52,4.52,0,0,1,211.57,91.55Z" style="fill:#455a64"></path><path d="M154.82,126.12,147,121.59a5.5,5.5,0,0,0-.26,1.75v11.28l4.06,2.34,4.06-2.35Z" style="fill:#37474f;opacity:0.5"></path><path d="M162.94,112.05l4.06-9.38-6.45-3.79h0c-1.9,2.62-2.45,4.73-5,8.9Z" style="fill:#37474f;opacity:0.5"></path><path d="M179.19,93.29l.53-2.73c-1.8-.76-3-3.18-3-6.71,0-4.71,2.11-9.86,5-12.58L176.05,68c-2.4,5.47-3.29,11.92-5.25,16.82a30.54,30.54,0,0,1-1.31,2.85Z" style="fill:#37474f;opacity:0.5"></path><path d="M222.21,80.64l-.32-.19a16,16,0,0,0-3.75-1.22,11.73,11.73,0,0,1-5.72-2.8,8.34,8.34,0,0,0-1.32-1A3.83,3.83,0,0,0,210,75c-2.46-.59-6.94,2.09-10.16-2.08l-.1-.13c-2.25-3-3.07-9.79-6.44-11.78l-.34-.19c-1.39-.65-3.2-.53-5.67.89-8.93,5.16-9.23,17.41-12.45,25.46s-7.77,10.58-10.25,14-2.64,6-8.14,13.6-5.7,9.42-5.7,10.85V137l73.09-42.21V83.48A2.85,2.85,0,0,0,222.21,80.64Zm-63,45.81c-1,.55-1.72-.19-1.72-1.66a4.58,4.58,0,0,1,1.72-3.66c1-.55,1.72.2,1.72,1.67A4.53,4.53,0,0,1,159.24,126.45Zm28.06-34c-2.4,1.39-4.5.6-5.63-1.72a10.4,10.4,0,0,1-.89-4.55c0-5.54,2.92-11.71,6.52-13.79a5.28,5.28,0,0,1,1.57-.62c2.84-.56,4.94,2.17,4.94,6.89C193.81,84.21,190.9,90.38,187.3,92.46Zm28.33,1.43c-1,.55-1.73-.19-1.73-1.65a4.52,4.52,0,0,1,1.73-3.65c1-.55,1.72.19,1.72,1.66A4.54,4.54,0,0,1,215.63,93.89Z" style="fill:#37474f"></path><path d="M193.81,78.67c0,5.54-2.91,11.71-6.51,13.79-2.4,1.39-4.5.6-5.63-1.72a5.07,5.07,0,0,0,1.58-.62c3.6-2.08,6.51-8.25,6.51-13.79a10.4,10.4,0,0,0-.89-4.55C191.71,71.22,193.81,74,193.81,78.67Z" style="fill:#263238"></path><path d="M159.24,126.44c-1,.55-1.73-.19-1.73-1.65a4.57,4.57,0,0,1,1.73-3.66c.95-.55,1.72.2,1.72,1.67a4.54,4.54,0,0,1-1.72,3.64" style="fill:#263238"></path><path d="M215.62,93.89c-1,.55-1.72-.19-1.72-1.65a4.57,4.57,0,0,1,1.72-3.66c1-.55,1.73.2,1.73,1.67a4.52,4.52,0,0,1-1.73,3.64" style="fill:#263238"></path><path d="M111.43,160.55,263.19,72.93a2.9,2.9,0,0,1,2.6,0l1.47.85a2.88,2.88,0,0,1,1.3,2.25V307.55a2.88,2.88,0,0,1-1.3,2.25L115.5,397.42a2.9,2.9,0,0,1-2.6,0l-1.47-.85a2.88,2.88,0,0,1-1.3-2.25V162.8A2.9,2.9,0,0,1,111.43,160.55Z" style="fill:#f5f5f5"></path><path d="M268.51,75.64c-.16-.53-.66-.7-1.25-.36L115.5,162.9a2.61,2.61,0,0,0-.92,1l-4.06-2.34a2.54,2.54,0,0,1,.92-1L263.2,72.94a2.82,2.82,0,0,1,2.59,0l1.47.84A2.88,2.88,0,0,1,268.51,75.64Z" style="fill:#fafafa"></path><path d="M115.19,397.56a2.42,2.42,0,0,1-.48.13l-.25,0a3.49,3.49,0,0,1-.79,0,2.42,2.42,0,0,1-.48-.13l-.29-.14-1.46-.84a2.87,2.87,0,0,1-1.3-2.25V162.81a2.56,2.56,0,0,1,.38-1.28l4.06,2.34a2.73,2.73,0,0,0-.38,1.28V396.67C114.2,397.38,114.62,397.73,115.19,397.56Z" style="fill:#e0e0e0"></path><path d="M234.37,105.73l-4-2.34a4.39,4.39,0,0,0-4.06.12c-4.72,2.08-6.76,3-9.2,4l-1.76.71c-.95.38-2.86.06-2.27-3.27l6.27-16.89-.09,0-4-2.3a1.77,1.77,0,0,0-.66-.23,2.87,2.87,0,0,0-.44,0c-2.57-.06-3.3-16.62-3.32-17.13h0l-.18-.1L206.72,66a4.39,4.39,0,0,0-2.24-.57,8.22,8.22,0,0,0-3.72,1c-6.17,3.24-12.4,12.84-13.92,21.46-1,5.44-6.43,13.81-9.59,16.89s-3.38,5.66-3.38,5.66l-2.46,13.94-.79,4.46c-.58,3.33-4,6.55-4,6.55L153.9,145c-8,6.62-10.22,13.3-11.75,21.57v.06c0,.29,0,.49.14.57a.14.14,0,0,0,.14,0h0l1.63-.93,87.58-50.51a1.92,1.92,0,0,0,.8-1.22s0,0,0,0,0,0,0,0c.5-3,2-8.67,2-8.67ZM209.05,80.14c-.94,5.3-4.76,11.21-8.56,13.2-2.62,1.37-4.53.52-5.17-1.89a3,3,0,0,1-2.87-.37c-1.22-1,9.94-20.11,10.85-19.69A3.24,3.24,0,0,1,205,73.68C208.11,72.73,209.89,75.38,209.05,80.14Z" style="fill:#455a64"></path><path d="M154.82,154.27l-6.38-3.69c-3.71,4.87-5.19,10-6.29,15.95v.06c0,.29,0,.49.14.57a.14.14,0,0,0,.14,0h0l5-4Z" style="fill:#37474f;opacity:0.5"></path><path d="M170.2,130.31l9,5.19,4.06-23.45-8.11-4.68a7.72,7.72,0,0,0-1.27,3.1l-2.46,13.94-.79,4.46A8.42,8.42,0,0,1,170.2,130.31Z" style="fill:#37474f;opacity:0.5"></path><path d="M191.1,76.72a34.82,34.82,0,0,0-4.26,11.2,27.9,27.9,0,0,1-3.18,8l7.72,4.46,3.83-8.86a3,3,0,0,1-2.76-.39c-.63-.5,2-5.8,4.86-10.78Z" style="fill:#37474f;opacity:0.5"></path><path d="M234.43,105.76l-.06,0a4.41,4.41,0,0,0-4,.13c-5.79,2.55-7.54,3.39-11,4.75-.92.37-2.77.07-2.29-3.06a1.52,1.52,0,0,1,0-.21l.79-4.46,2.19-12.15s.5-1.91-.77-2.63l-.09,0a2.36,2.36,0,0,0-1-.22,4.94,4.94,0,0,1-3.62-2.31,9.13,9.13,0,0,1-1.36-7c.92-5.21-.09-8.86-2.4-10.22l-.18-.11c-1.49-.79-3.49-.66-5.83.57-6.17,3.24-12.4,12.84-13.92,21.46-1,5.44-6.43,13.81-9.59,16.89s-3.38,5.66-3.38,5.66l-2.46,13.94-.79,4.46c-.58,3.33-4,6.55-4,6.55L158,147.31a30.68,30.68,0,0,0-10.47,15.85s-4.77,3.7-5.07,4h0s0,0,0,0h0l1.63-.93,87.83-50.49s1-.55,1.23-.69,3.76-3.48,3.76-3.48C236.74,108.69,235.9,106.64,234.43,105.76ZM209.05,80.14c-.94,5.3-4.76,11.21-8.56,13.2-2.62,1.37-4.53.52-5.17-1.89a10,10,0,0,1,0-4.11c.94-5.3,4.77-11.21,8.57-13.19a6.72,6.72,0,0,1,1.1-.47C208.11,72.73,209.89,75.38,209.05,80.14Z" style="fill:#37474f"></path><path d="M209.05,80.14c-.94,5.3-4.76,11.21-8.56,13.2-2.62,1.37-4.53.52-5.17-1.89a7.09,7.09,0,0,0,1.11-.46c3.8-2,7.63-7.9,8.56-13.2a9.86,9.86,0,0,0,0-4.11C208.11,72.73,209.89,75.38,209.05,80.14Z" style="fill:#263238"></path><path d="M205.38,73.9h0a2.08,2.08,0,0,1,1.84.89c1.57,2.24.06,7.94-.59,9.76-.91,2.54-6.8,8.49-8.42,8.49a4,4,0,0,1-2.66-1.7,10.09,10.09,0,0,1,0-4c.93-5.23,4.72-11.07,8.44-13a6,6,0,0,1,1-.45l.35,0m0-.25-.4,0a6.72,6.72,0,0,0-1.1.47c-3.8,2-7.63,7.89-8.57,13.19a10,10,0,0,0,0,4.11,4.25,4.25,0,0,0,2.88,1.84h0c1.76,0,7.68-6,8.63-8.65s3-11-1.48-11Z" style="fill:#263238"></path><path d="M142.43,167.17l89.46-51.43,1.24-.69c.22-.13,3.76-3.49,3.76-3.49l-89.4,51.6S142.07,167.35,142.43,167.17Z" style="fill:#263238"></path><polygon points="126.56 190.56 150.76 176.38 150.76 204.53 126.56 218.7 126.56 190.56" style="fill:#fafafa"></polygon><path d="M127.56,191.13V217l22.2-13V178.13Zm-1,28.57a1.06,1.06,0,0,1-.5-.13,1,1,0,0,1-.5-.87V190.56a1,1,0,0,1,.49-.87l24.2-14.17a1,1,0,0,1,1,0,1,1,0,0,1,.5.86v28.15a1,1,0,0,1-.5.86l-24.2,14.17A1,1,0,0,1,126.56,219.7Z" style="fill:#455a64"></path><path d="M162.94,170.34v2c0,1.11.78,1.56,1.73,1l85.9-49.58a3.85,3.85,0,0,0,1.74-3v-2.05c0-1.1-.78-1.55-1.74-1l-85.9,49.6A3.83,3.83,0,0,0,162.94,170.34Z" style="fill:#e0e0e0"></path><path d="M162.94,182.63v2c0,1.1.78,1.55,1.73,1l85.9-49.59a3.83,3.83,0,0,0,1.74-3v-2c0-1.11-.78-1.56-1.74-1l-85.9,49.59A3.83,3.83,0,0,0,162.94,182.63Z" style="fill:#e0e0e0"></path><path d="M162.94,194.85v2c0,1.1.78,1.55,1.73,1l85.9-49.59a3.82,3.82,0,0,0,1.74-3v-2c0-1.1-.78-1.55-1.74-1l-85.9,49.59A3.86,3.86,0,0,0,162.94,194.85Z" style="fill:#e0e0e0"></path><polygon points="139.06 204.94 133.43 199.53 135.86 194.39 139.06 197.48 152.39 169.26 154.82 171.59 139.06 204.94" style="fill:#90CAF9"></polygon><polygon points="126.56 242.15 150.76 227.98 150.76 256.12 126.56 270.29 126.56 242.15" style="fill:#fafafa"></polygon><path d="M127.56,242.72v25.83l22.2-13V229.72Zm-1,28.57a1,1,0,0,1-.5-.13,1,1,0,0,1-.5-.87V242.15a1,1,0,0,1,.49-.86l24.2-14.17a1,1,0,0,1,1.51.86v28.14a1,1,0,0,1-.5.87l-24.2,14.17A1,1,0,0,1,126.56,271.29Z" style="fill:#455a64"></path><path d="M162.94,221.93v2c0,1.1.78,1.55,1.73,1l85.9-49.59a3.82,3.82,0,0,0,1.74-3v-2c0-1.11-.78-1.55-1.74-1l-85.9,49.59A3.86,3.86,0,0,0,162.94,221.93Z" style="fill:#e0e0e0"></path><path d="M162.94,234.23v2c0,1.11.78,1.55,1.73,1l85.9-49.59a3.82,3.82,0,0,0,1.74-3v-2c0-1.1-.78-1.55-1.74-1l-85.9,49.6A3.83,3.83,0,0,0,162.94,234.23Z" style="fill:#e0e0e0"></path><path d="M162.94,246.45v2c0,1.1.78,1.55,1.73,1l85.9-49.59a3.83,3.83,0,0,0,1.74-3v-2c0-1.11-.78-1.56-1.74-1l-85.9,49.59A3.85,3.85,0,0,0,162.94,246.45Z" style="fill:#e0e0e0"></path><polygon points="139.06 256.54 133.43 251.12 135.86 245.99 139.06 249.07 152.39 220.85 154.82 223.19 139.06 256.54" style="fill:#90CAF9"></polygon><polygon points="126.56 293.75 150.76 279.57 150.76 307.72 126.56 321.89 126.56 293.75" style="fill:#fafafa"></polygon><path d="M127.56,294.32v25.83l22.2-13V281.32Zm-1,28.57a1,1,0,0,1-.5-.13,1,1,0,0,1-.5-.87V293.75a1,1,0,0,1,.49-.87l24.2-14.17a1,1,0,0,1,1.51.87v28.14a1,1,0,0,1-.5.86l-24.2,14.17A1,1,0,0,1,126.56,322.89Z" style="fill:#455a64"></path><path d="M162.94,273.53v2c0,1.1.78,1.55,1.73,1L250.57,227a3.83,3.83,0,0,0,1.74-3v-2c0-1.11-.78-1.56-1.74-1l-85.9,49.59A3.85,3.85,0,0,0,162.94,273.53Z" style="fill:#e0e0e0"></path><path d="M162.94,285.82v2c0,1.1.78,1.55,1.73,1l85.9-49.59a3.82,3.82,0,0,0,1.74-3v-2c0-1.11-.78-1.55-1.74-1l-85.9,49.59A3.85,3.85,0,0,0,162.94,285.82Z" style="fill:#e0e0e0"></path><path d="M162.94,298.05v2c0,1.11.78,1.55,1.73,1l85.9-49.59a3.81,3.81,0,0,0,1.74-3v-2.05c0-1.1-.78-1.55-1.74-1l-85.9,49.6A3.83,3.83,0,0,0,162.94,298.05Z" style="fill:#e0e0e0"></path><polygon points="126.56 345.34 150.76 331.17 150.76 359.32 126.56 373.49 126.56 345.34" style="fill:#fafafa"></polygon><path d="M127.56,345.92v25.82l22.2-13V332.92Zm-1,28.57a1,1,0,0,1-1-1V345.34a1,1,0,0,1,.49-.86l24.2-14.17a1,1,0,0,1,1,0,1,1,0,0,1,.5.87v28.15a1,1,0,0,1-.5.86l-24.2,14.17A1,1,0,0,1,126.56,374.49Z" style="fill:#455a64"></path><path d="M162.94,325.13v2c0,1.11.78,1.55,1.73,1l85.9-49.59a3.82,3.82,0,0,0,1.74-3v-2c0-1.1-.78-1.55-1.74-1l-85.9,49.6A3.83,3.83,0,0,0,162.94,325.13Z" style="fill:#e0e0e0"></path><path d="M162.94,337.42v2c0,1.11.78,1.56,1.73,1l85.9-49.58a3.85,3.85,0,0,0,1.74-3v-2.05c0-1.1-.78-1.55-1.74-1l-85.9,49.6A3.83,3.83,0,0,0,162.94,337.42Z" style="fill:#e0e0e0"></path><path d="M162.94,349.64v2c0,1.1.78,1.55,1.73,1l85.9-49.59a3.82,3.82,0,0,0,1.74-3v-2c0-1.11-.78-1.55-1.74-1l-85.9,49.59A3.86,3.86,0,0,0,162.94,349.64Z" style="fill:#e0e0e0"></path></g><g id="freepik--Character--inject-55"><g id="freepik--character-boy--inject-55"><circle cx="379.07" cy="176.69" r="10.85" transform="translate(143.95 522.56) rotate(-80.78)" style="fill:#263238"></circle><path d="M366.16,210.55l-15.48,18-20.79-9-.4,11.26s17,7.95,19.63,8.49,5.15,1.12,7.43-.63c2.66-2,12.21-13.06,12.21-13.06Z" style="fill:#ffa8a7"></path><path d="M380.21,201.32c-6.16-.4-11,4.28-14.62,8.48s-8.19,10.8-8.19,10.8,2.49,7.27,9.05,9.47l11.31-13.43Z" style="fill:#e0e0e0"></path><rect x="397.41" y="360.21" width="7.64" height="13.08" style="fill:#ffa8a7"></rect><polygon points="378.56 364.14 370.92 364.4 370.54 350.56 378.17 350.3 378.56 364.14" style="fill:#ffa8a7"></polygon><path d="M404.54,256.53c0,7.3.95,51.51.95,51.51.17,2.1,2.14,6,1.72,14-.58,11-1.53,39.43-1.53,39.43s-3.58,3.55-8.64,0c0,0-6.92-39.39-8.28-50.24-1.2-9.48-3.23-35.21-3.23-35.21l-4.23,35.72s1.24,7.12,1.52,12.14-4.14,30.54-4.14,30.54a8.36,8.36,0,0,1-8.32.31s-3.29-38.89-4.08-43.43,2.53-54.8,2.53-54.8Z" style="fill:#37474f"></path><path d="M397.2,203.76a8.36,8.36,0,0,1,6.72,6.41,27.12,27.12,0,0,1,.62,5.8v40.56c-5.35,5.83-24,8.55-35.73,0,0,0,.23-35.82,1.11-41.71,1.52-10.22,6.41-13.87,11.33-13.49L393,203Z" style="fill:#f0f0f0"></path><path d="M397.82,184.4s-1.76,8.25-2.46,9.61a3.73,3.73,0,0,1-2.16,1.74l.12-5.8Z" style="fill:#263238"></path><path d="M395.61,172.57a4.05,4.05,0,0,1,3.37,1.18c1.45,1.48.64,6.11-1.16,10.65l-3.31.38Z" style="fill:#263238"></path><path d="M393.52,184.78c.66.4,1.61-.88,2.43-1.73s3.49-2,4.82.78-1.18,6.64-3.28,7.3c-3.63,1.14-4.17-1.18-4.17-1.18L393,203a11.66,11.66,0,0,1-8.8,6.68c-6.43.88-5.11-4.42-3-7v-4a22.76,22.76,0,0,1-4.89.25c-2.67-.41-4.35-2.52-5.15-5.4-1.3-4.64-1.8-8.38-.7-17.5,1.21-10,12.84-10.1,19.11-6.15S393.52,184.78,393.52,184.78Z" style="fill:#ffa8a7"></path><path d="M393.52,185.9c.33,0,1.6-2.1,2.43-2.85,1.14-1.05-.34-10.48-.34-10.48a4.45,4.45,0,0,0-1.1-4.77c-1.57-1.73-4.19-1.92-8.67-2.62-2.34-.37-5.9-1-8.25-1.47-2.8-.52-5.12-1.07-7.09.65a5,5,0,0,0-1.38,5.56,4.78,4.78,0,0,0,.8,1.19,4.66,4.66,0,0,0,2,1.39s1.22,1.08,5.47,1.6a62.68,62.68,0,0,0,11.77-.23c1.23-.16,1.49,1,2.16,4.29C391.91,181,392.4,185.88,393.52,185.9Z" style="fill:#263238"></path><path d="M395.61,173.3l4-2.15a2.22,2.22,0,0,0-3-1A2.4,2.4,0,0,0,395.61,173.3Z" style="fill:#263238"></path><path d="M381.26,198.7s5.95-1.2,8-2.31a6.91,6.91,0,0,0,2.88-2.84,9.33,9.33,0,0,1-1.64,3.35c-1.52,1.95-9.27,3.38-9.27,3.38Z" style="fill:#f28f8f"></path><path d="M382.69,183.29a1.19,1.19,0,1,0,1.19-1.24A1.21,1.21,0,0,0,382.69,183.29Z" style="fill:#263238"></path><path d="M384,178.79l2.55,1.41a1.52,1.52,0,0,0-.59-2A1.43,1.43,0,0,0,384,178.79Z" style="fill:#263238"></path><path d="M381.8,191.53l-2.73,1a1.44,1.44,0,0,0,1.85.91A1.55,1.55,0,0,0,381.8,191.53Z" style="fill:#f28f8f"></path><path d="M372.05,179.78l2.33-1.79a1.41,1.41,0,0,0-2-.31A1.55,1.55,0,0,0,372.05,179.78Z" style="fill:#263238"></path><path d="M372.77,183a1.19,1.19,0,1,0,1.19-1.24A1.21,1.21,0,0,0,372.77,183Z" style="fill:#263238"></path><polygon points="378.84 181.82 378.45 189 374.71 187.72 378.84 181.82" style="fill:#f28f8f"></polygon><path d="M397.41,369.52v-1.1c-.74.32-2.43,6.8-5.47,9.57-2.41,2.19-5.69,4.73-6.53,7.18s4.58,4,6.83,3.56c2.62-.46,7.15-2.3,8.29-4s1.67-4.23,2.59-5.48,3.06-2.65,3.56-4.1c.28-.79-.05-2.54-.44-4s-.73-2.83-1.19-2.71c0,.17,0,.84,0,.84a6.11,6.11,0,0,1-3.82,1.29C400.11,370.59,397.4,370.37,397.41,369.52Z" style="fill:#263238"></path><path d="M370.84,362c-.4,0-.72.58-1.59,1.52a16.74,16.74,0,0,1-4.5,3.24c-2.86,1.43-8.42,3.63-10.94,4.77-1.57.7-1.5,2.6.13,3.68s5.55,1.86,10.26.81c2.57-.57,5.91-2.94,8-2.82s6.08.1,7.64-1,.94-3.38.49-5.35c-.48-2.16-1.17-5.46-1.88-5.31l0,.68c-.92,1.39-5.59,2-7.61.93Z" style="fill:#263238"></path><path d="M385.53,276.05a28.35,28.35,0,0,1-10.64-6.1s2.06,3.84,8.16,7.42l-1.75,34.4Z" style="fill:#263238"></path></g><path d="M353.09,329l-12.86,37.53a1.21,1.21,0,0,1-2.29,0L325.25,328.7Z" style="fill:#ffa8a7"></path><path d="M337.94,366.53a1.21,1.21,0,0,0,2.29,0l2.51-7.33h0a6.67,6.67,0,0,1-6.95-.39l-.56-.38Z" style="fill:#263238"></path><path d="M325.74,161.36V165l0,4.43-.45,159.24c2.94,3.36,7.3,5.07,11.72,5.52,6.73.7,13.64-1.51,16.1-5.21l.45-159.15,0-8.47C353.23,166.88,325.49,166.86,325.74,161.36Z" style="fill:#90CAF9"></path><path d="M325.65,175.33v8.2c-.08,2.38,5,3.92,10.83,4.45,7.76.74,16.9-1.36,17-4.51l0-6.05,0-2.16c-.11,3.15-9.25,5.26-17,4.52-5.6-.52-10.5-2-10.78-4.19v0A.63.63,0,0,1,325.65,175.33Z" style="fill:#ebebeb"></path><path d="M325.67,177.38c-.2,5.52,27.62,5.45,27.82-.07l0-8.21c-.2,5.52-28,5.59-27.82.07Z" style="fill:#90CAF9"></path><path d="M325.74,161.36l0,8.1c-.24,5.42,26.61,5.58,27.82.4a1,1,0,0,0,.05-.31l0-8.16C353.23,166.88,325.49,166.86,325.74,161.36Z" style="fill:#ebebeb"></path><path d="M353.52,169.86l0-8.47c-.15,2.48-5.83,4.33-12.13,4.55L341,334.35l-.75,32.19L353.09,329h0Z" style="opacity:0.1"></path><path d="M325.87,127l-.13,34.39c-.11,2.35,4.89,3.9,10.69,4.46,7.76.76,16.94-1.29,17.12-4.43,0,0,0,0,0,0l.12-34.5c0-6.86-13.92-8.59-22.23-5.73C328.33,122.18,326.12,124.09,325.87,127Z" style="fill:#f28f8f"></path><path d="M416.17,267.94a84.61,84.61,0,0,1-1.37,10.33c-2.29,8.82-5.22,11.47-9.13,11.73-6.23.41-6.27-1.92-3.47-5.94a20,20,0,0,0,2.78-5.74,14.53,14.53,0,0,1-3,1.93,2.14,2.14,0,0,1-2.81-.76c-.2-.42.88-.84,2.08-2.3,1.52-1.86,2.3-3.34,4.4-4.88a4.36,4.36,0,0,0,1.26-2.57c.32-1.26.54-21.27-.59-25.41L401,225.08c-4.36-3-9-17.8-2.37-21,6.22.7,10.76,8.84,17.55,34C417.33,242.56,416.87,261.1,416.17,267.94Z" style="fill:#ffa8a7"></path><path d="M397.2,203.76a8,8,0,0,0-2.69,6c-.18,4.19,1.79,10.23,3,14s3.66,10.63,3.66,10.63,10.25-1.18,12.58-7.19c0,0-4.8-15.53-9.42-20.58A8.66,8.66,0,0,0,397.2,203.76Z" style="fill:#e0e0e0"></path><path d="M331.6,207.52s2.49-2,7.24-1.21c2.3.38,1.42,9.08-6,11.5-4.81,1.58-5.79.77-7.34,4.72,0,0-2.9-.6-2.2-5a24.79,24.79,0,0,1,5.86-12.27c2.12-2.5,2.27-4.6,3.31-3.89s.45,2.87.45,2.87Z" style="fill:#ffa8a7"></path></g></svg>